<?xml version="1.0" encoding="UTF-8"?>
<svg id="Layer_1" data-name="Layer 1" xmlns="http://www.w3.org/2000/svg" viewBox="0 0 1920 900">
  <defs>
    <style>
      .cls-1 {
        fill: #f7f7f7;
      }

      .cls-1, .cls-2 {
        stroke-width: 0px;
      }

      .cls-2 {
        fill: #2044ac;
      }
    </style>
  </defs>
  <rect class="cls-1" width="1920" height="900" rx="153.29" ry="153.29"/>
  <path class="cls-2" d="m1645,89.88c-46.73,3.94-88.13,33.86-126.01,91-21.32,32.06-34.19,66.41-38.78,103.3-1.56,13.12-1.64,44.11,0,59.03,5.66,52.88,24.68,95.68,57.8,129.86,13.94,14.35,25.5,23.28,41.07,31.56,32.14,17.05,69.52,22.05,107.81,14.43,32.71-6.56,63.21-25.01,87.4-52.88,31.89-36.73,48.94-81.49,52.31-137.49,2.71-45.58-7.3-89.61-30.42-133.72-22.87-43.7-51.4-74.69-83.95-90.92-22.79-11.4-44.93-16.07-67.23-14.18Zm20.25,108.71c16.23,5.25,31.15,25.58,41.16,56.16,9.59,29.27,11.4,59.36,5.33,89.69-4.59,22.87-15.74,45.01-28.2,56-18.12,15.91-41.89,15.17-59.11-1.89-19.51-19.27-29.84-50.83-29.84-91.09,0-27.38,5.17-48.86,17.71-73.29,15.41-30.17,33.04-41.98,52.96-35.58Z"/>
  <path class="cls-2" d="m1041.59,101.11c1.8,10,6.89,52.96,8.94,75.67,6.64,72.23,7.54,150.93,2.46,222.18-2.54,36.16-8.12,86.9-11.81,107.32-.49,2.46-.82,5-.82,5.57,0,.9,14.92,1.07,83.05,1.07h83.13l-3.44-15.41c-9.35-41.4-16.64-89.28-20.41-133.39-.74-8.12-1.48-16.89-1.8-19.59l-.41-4.76,2.3.49c3.53.9,12.05,5,16.4,7.95,13.28,9.1,22.87,22.63,28.78,40.91,3.44,10.66,3.61,11.4,8.36,36.48,9.51,50.67,14.92,64.19,32.71,82.64,16.4,16.97,35.34,25.17,58.29,25.17,36.98,0,69.11-23.69,81.08-59.6,4.35-13.12,5.41-20.33,5.41-37.14,0-14.84-.57-20.33-3.44-32.3l-1.31-5.66-1.72,2.38c-5.57,7.79-15.99,16.56-23.94,20.09-6.23,2.79-14.84,2.62-21.15-.33-6.64-3.12-11.31-7.13-16.4-14.02-6.15-8.36-8.53-12.87-16.07-30.42-9.76-22.63-20.33-43.94-26.24-52.72-2.79-4.18-4.92-7.79-4.76-7.95s6.56-2.54,14.27-5.17c18.04-6.31,24.68-9.26,32.71-14.43,18.36-11.97,30.83-31.73,35.75-56.65,1.72-8.44,1.48-29.92-.41-40.17-3.44-19.1-11.23-38.12-20.82-50.83-16.48-22.22-40.01-36.81-71.08-44.11-21.4-5.08-17.63-4.92-137.9-5.25l-110.11-.33.41,2.3Zm169.71,89.61c11.64,2.54,20.33,5.57,25.74,9.02,11.89,7.79,15.58,15.82,12.87,28.69-3.69,17.54-15.74,28.61-35.83,32.88-5.98,1.23-10.74,1.64-21.23,1.56-7.46,0-15.58-.25-18.04-.57l-4.51-.66-.57-4.1c-.82-6.48-2.21-31.07-2.87-51.16l-.49-18.36,18.36.49c14.27.33,20.17.82,26.56,2.21Z"/>
  <path class="cls-2" d="m171.9,144.97c-.41,44.19-.82,53.45-3.44,82.23-5.25,57.64-15.66,109.2-32.22,159.87-2.21,6.72-11.15,32.96-19.84,58.21-8.61,25.25-17.54,51.16-19.68,57.55l-4.02,11.72h164.46l-2.38-8.03c-3.12-10.49-6.07-25.25-7.62-38.37-1.31-10.41-2.71-45.42-1.89-45.42.25,0,4.43.9,9.35,1.97,29.92,6.72,53.37,5.9,75.75-2.71,2.46-.9,4.67-1.72,4.84-1.72.74,0-.82,37.3-1.97,47.55-1.56,13.12-4.59,28.37-7.71,39.02l-2.3,7.71h81.82c49.03,0,81.9-.33,81.9-.74s-1.8-6.07-4.02-12.54c-44.03-127.65-47.96-139.54-53.86-160.44-10.49-37.63-17.22-74.69-21.4-118.96-1.89-19.76-1.97-90.1-.16-109.7l1.15-12.46h-236.36l-.41,45.26Zm123.88,81c9.76,29.51,18.04,59.44,24.35,87.07,1.56,7.05,2.87,13.12,2.87,13.53,0,.98-9.26,3.85-17.54,5.57-10.58,2.13-27.63,3.12-38.45,2.13-5.33-.49-10-1.07-10.33-1.31-1.39-.82,7.95-40.58,16.72-70.92,6.64-23.28,16.23-52.55,16.89-51.9.25.41,2.79,7.46,5.49,15.82Z"/>
  <path class="cls-2" d="m636.01,126.11c1.07,75.67-6.39,147.98-21.56,210.13-4.1,16.89-12.54,45.91-17.05,59.03-4.67,13.28-40.75,118.71-40.75,118.96,0,.16,36.89.33,81.98.33s81.98-.25,81.98-.49-1.07-4.26-2.38-8.85c-5.74-19.59-8.2-37.47-8.85-63.13l-.49-19.59,2.38.57c31.48,8.03,56.08,8.12,79.12.25l7.95-2.71.41,4.35c.66,6.48-.82,36.4-2.3,47.55-2.05,14.35-6.15,33.12-9.1,40.66-.49,1.31,5.49,1.39,81.57,1.39,45.17,0,82.07-.16,82.07-.25,0-.41-24.19-71.08-40.01-117.24-6.39-18.45-13.45-39.84-15.66-47.55-22.96-78.71-30.74-159.79-23.37-243.9l.57-5.9h-236.85l.33,26.4Zm123.47,99.61c11.31,34.19,18.12,59.36,27.14,99.94.33,1.56-.33,1.97-5.66,3.44-16.07,4.76-34.27,6.56-50.67,5.08-5.49-.49-10.08-.98-10.33-1.15-.98-.98,8.94-42.3,16.64-68.95,5.49-19.35,16.64-54.52,17.22-54.52.16,0,2.71,7.3,5.66,16.15Z"/>
  <path class="cls-2" d="m93.44,587.03c0,.66.9,5.33,1.97,10.49,11.89,54.77,13.28,117.81,4.1,181.02-1.8,12.54-3.77,22.96-5.66,30.5l-.57,2.3h166.59v-96.25l-5,7.38c-12.54,18.36-25.33,30.99-37.88,37.3-14.27,7.21-29.35,6.15-39.68-2.87-4.35-3.77-9.59-14.02-11.56-22.63-1.97-8.77-1.97-48.53.08-66,2.95-25.01,8.53-56.82,14.1-80.59l.41-1.8h-43.45c-36.98,0-43.45.16-43.45,1.15Z"/>
  <path class="cls-2" d="m341.03,606.63c0,30.91-1.89,55.26-6.23,81.33-4.35,26.24-8.2,39.84-24.43,87.23-6.56,19.1-11.97,35.09-11.97,35.42,0,.41,19.92.74,44.35.74,39.52,0,44.27-.16,43.86-1.23-1.15-3.03-2.95-11.23-4.1-18.45-1.39-8.77-2.62-27.14-1.89-28.94.41-1.07,1.31-.98,6.89.41,9.26,2.3,24.84,2.3,33.04,0,3.36-.9,6.89-1.97,7.71-2.3,1.48-.57,1.56-.16,1.07,12.46-.49,13.36-1.97,23.94-4.59,32.88l-1.56,5.17h89.04l-7.38-21.56c-23.61-68.87-25.58-75.34-29.68-95.27-2.71-13.04-5.17-30.17-6.31-44.27-.98-11.56-.57-57.47.57-62.14l.49-2.21h-128.88v20.74Zm70.51,58.46c3.94,13.04,11.48,41.98,11.48,44.27,0,2.05-11.31,4.02-23.53,4.02-6.39,0-11.89-.25-12.22-.57-.82-.9,1.56-12.13,6.23-29.35,3.69-13.45,10.25-34.68,11.31-36.48.66-1.07,1.89,2.3,6.72,18.12Z"/>
  <path class="cls-2" d="m561.08,587.2c1.07,2.79,6.23,30.09,7.79,41.32,3.69,26.65,5,53.29,4.02,86.08-.98,34.35-4.43,64.28-11.07,94.45l-.41,2.3h43.12c23.69,0,43.12-.16,43.12-.33s-.57-1.89-1.31-3.85c-2.54-7.38-7.71-29.84-9.67-42.8-1.97-12.71-3.85-28.61-3.44-29.1.16-.08,2.21.74,4.67,1.8,6.39,2.95,17.63,5.98,24.19,6.64,5.08.49,10,0,18.28-1.72l2.71-.57-.57,6.07c-2.05,21.89-7.62,46.98-13.94,62.39-.57,1.39,1.8,1.48,42.63,1.48h43.21l-.57-2.21c-1.64-6.8-4.67-22.87-6.07-33.12-9.02-64.19-7.05-127.57,5.57-183.4l1.56-6.72h-41.73c-22.96,0-41.73.08-41.73.16,0,.16,1.07,6.15,2.38,13.36,4.92,26.81,9.92,72.06,9.92,89.94v3.36l-11.23-.49c-12.54-.41-20.99-2.46-31.73-7.46-9.51-4.51-8.85-3.12-7.87-17.3.98-15.09,2.79-31.65,5-46.32,1.72-11.81,5.41-31.97,6.15-34.02.41-1.07-4.35-1.23-41.48-1.23s-41.98.16-41.48,1.31Z"/>
  <path class="cls-2" d="m803.51,618.84c0,30.74.08,32.88,1.31,30.99,3.2-4.92,14.18-14.68,19.27-17.13,17.22-8.2,34.43-2.62,42.06,13.61,4.02,8.36,5.49,15.99,5.9,30.5.98,30.25-2.87,66.49-12.71,117.73l-3.12,16.4,41.81.25c22.96.08,41.81.08,41.98,0,.08-.16-.33-2.54-.98-5.41-1.39-6.07-6.15-35.75-8.94-56-2.79-19.92-5.25-49.52-5.9-69.2-.41-14.02-.25-17.46.98-22.96,2.62-12.13,8.2-20,16.72-24.02,3.94-1.8,5.17-1.97,11.15-1.64,9.76.66,20.41,5.82,32.88,15.91l4.43,3.61v-65.59h-186.93l.08,32.96Z"/>
  <path class="cls-2" d="m1037.9,587.03c0,.66.74,4.59,1.56,8.85,8.61,41.81,9.18,106.33,1.72,184.71-.9,9.43-2.05,20.17-2.46,23.78-.49,3.61-.82,6.64-.82,6.72,0,.16,17.22.25,38.2.25h38.2l-.49-2.3c-.25-1.23-2.05-15.66-3.94-32.14-3.36-28.94-3.44-30.74-3.44-55.34,0-25.99.66-35.75,4.51-66,1.8-14.51,6.23-41.89,9.35-58.13,1.15-5.98,2.05-11.07,2.05-11.23s-19.02-.33-42.22-.33c-35.5,0-42.22.16-42.22,1.15Z"/>
  <path class="cls-2" d="m1293.94,588.26c2.54,12.79,7.21,62.31,8.36,89.45l.57,11.89-2.13-2.46c-4.84-5.49-20.33-29.76-24.6-38.37-2.46-5-5.82-13.04-7.38-17.79-2.95-8.77-7.3-29.02-8.36-38.37l-.57-5.08h-42.06c-23.2,0-42.14.25-42.14.57,0,.41.74,4.43,1.64,9.1,4.92,25.42,6.89,53.95,6.31,91.58-.66,40.01-4.18,77.07-10.74,112.48l-1.8,10.08h77.31l-2.71-8.12c-6.23-18.77-8.12-32.79-8.12-59.52,0-21.97.57-29.43,2.3-28.86,1.8.57,14.51,18.04,20.33,27.79,10.99,18.45,20.58,40.91,25.99,60.67l2.21,8.03h84.2l-.49-2.3c-3.94-19.68-9.26-63.87-11.15-93.22-1.23-19.76-1.07-60.18.41-75.34,1.8-19.18,4.76-35.25,8.53-47.72.98-2.95,1.72-5.74,1.72-6.15s-16.64-.74-39.02-.74h-39.02l.41,2.38Z"/>
  <path class="cls-2" d="m1415.36,587.28c2.13,7.46,5.66,24.6,7.46,37.14,6.23,42.14,6.39,93.3.33,141.83-1.72,14.27-5.17,35.34-6.48,40.17-.49,1.56-.82,3.36-.82,3.85,0,.82,17.22,1.07,83.21,1.07h83.13l-1.23-3.94c-5.41-17.38-9.35-43.29-10.41-68.95l-.16-4.43-2.71,4.18c-3.77,5.82-13.36,14.43-19.35,17.38-9.26,4.59-22.14,5.17-33.86,1.56-9.76-3.03-16.15-7.95-20.09-15.5-2.79-5.33-2.71-16.72.08-22.38,2.38-4.76,7.62-10.33,11.56-12.22l2.87-1.39.82,2.21c1.64,4.35,3.61,7.21,7.54,10.9,12.95,12.13,32.63,8.36,41.07-7.87,2.87-5.57,3.12-16.07.41-21.89-5.74-12.46-20.41-19.43-39.11-18.53-10.25.49-18.61,3.12-28.12,8.85-3.69,2.3-6.89,4.1-7.05,4.1s0-2.13.41-4.76c3.03-20.09,15.58-39.27,30.58-46.73,5.49-2.71,11.48-3.69,19.43-3.28,6.39.41,8.12.82,13.2,3.44,8.12,4.1,14.51,10,20.17,18.61l4.84,7.3.49-5.57c1.31-13.04,4.84-40.17,6.97-52.47,1.15-7.38,2.05-13.53,1.8-13.69-.16-.25-37.96-.41-83.87-.41-79.2,0-83.54.08-83.13,1.39Z"/>
  <path class="cls-2" d="m1748.22,587.69c2.54,9.18,8.69,76.9,8.69,95.59v6.07l-1.89-2.38c-6.39-7.62-18.77-26.89-23.94-37.22-8.03-15.82-13.2-34.19-16.4-58.37l-.49-3.85h-42.3c-36.4,0-42.14.16-41.81,1.15.98,2.54,4.67,26.89,5.9,38.45,4.92,48.21,1.89,114.04-7.79,169.3-1.39,7.54-2.46,13.94-2.46,14.27,0,.41,17.38.66,38.61.66,36.48,0,38.61-.08,38.04-1.48-1.56-3.53-5.57-17.71-6.97-24.35-2.79-13.69-3.69-23.53-3.69-41.81,0-19.68.82-29.35,2.3-28.86,1.64.49,8.53,9.35,15.74,20.25,12.46,18.77,23.04,41.48,29.51,63.95,1.64,5.66,3.2,10.74,3.36,11.23.25.82,9.35,1.07,42.22,1.07h41.98l-.57-3.53c-9.26-56.73-12.54-96-11.72-138.14.66-34.19,3.28-54.6,9.84-77.07l2.05-6.72h-78.71l.49,1.8Z"/>
</svg>